<svg width="16" height="16" viewBox="0 0 16 16" fill="none" xmlns="http://www.w3.org/2000/svg">
<g clip-path="url(#clip0_110_6)">
<path d="M3.67 10.22C2.86333 10.22 2.25 10.03 1.83 9.65C1.41667 9.27667 1.21 8.75333 1.21 8.08C1.21 7.62667 1.29667 7.15667 1.47 6.67C1.65 6.17667 1.9 5.69667 2.22 5.23C2.54667 4.76333 2.93333 4.33667 3.38 3.95C3.83333 3.55667 4.33667 3.23 4.89 2.97C5.44333 2.71 6.03333 2.54333 6.66 2.47C6.7 2.46333 6.74333 2.46 6.79 2.46C6.83667 2.46 6.88333 2.46 6.93 2.46C7.08333 2.46 7.23333 2.47 7.38 2.49C7.53333 2.51 7.64667 2.53667 7.72 2.57C7.75333 2.53 7.79667 2.45 7.85 2.33C7.90333 2.21 7.95667 2.08333 8.01 1.95C8.07 1.81 8.11667 1.69 8.15 1.59C8.19 1.49 8.21 1.44 8.21 1.44C8.24333 1.44 8.28 1.46667 8.32 1.52C8.36667 1.57333 8.39 1.64667 8.39 1.74C8.39 1.75333 8.36333 1.82333 8.31 1.95C8.26333 2.07667 8.20333 2.21333 8.13 2.36C8.06333 2.5 7.99667 2.59667 7.93 2.65C7.98333 2.67667 8.01 2.71667 8.01 2.77C8.01 2.86333 7.94333 2.98667 7.81 3.14C7.67667 3.29333 7.52 3.45 7.34 3.61C7.16 3.77 6.98667 3.91333 6.82 4.04C6.66 4.16 6.55 4.24 6.49 4.28C6.34333 4.38 6.25 4.43 6.21 4.43C6.19667 4.43 6.19 4.42333 6.19 4.41C6.19 4.41 6.22333 4.36667 6.29 4.28C6.35667 4.18667 6.44333 4.07333 6.55 3.94C6.65667 3.8 6.76667 3.66 6.88 3.52C7 3.37333 7.11 3.24333 7.21 3.13C7.15667 3.10333 7.07333 3.09 6.96 3.09C6.54667 3.09 6.12333 3.16333 5.69 3.31C5.26333 3.45667 4.84333 3.66 4.43 3.92C4.02333 4.17333 3.64 4.46667 3.28 4.8C2.92 5.13333 2.60333 5.49 2.33 5.87C2.05667 6.24333 1.84333 6.62333 1.69 7.01C1.53667 7.39667 1.46 7.77 1.46 8.13C1.46 8.63667 1.63667 8.99333 1.99 9.2C2.35 9.40667 2.83 9.51 3.43 9.51C3.87 9.51 4.34667 9.46333 4.86 9.37C5.37333 9.27667 5.89333 9.15333 6.42 9C6.94667 8.84667 7.45 8.68 7.93 8.5C8.41667 8.31333 8.85 8.12667 9.23 7.94C9.61667 7.74667 9.92 7.57 10.14 7.41C10.1733 7.37667 10.2067 7.36 10.24 7.36C10.2667 7.36 10.28 7.37333 10.28 7.4C10.28 7.42667 10.2667 7.45333 10.24 7.48C9.93333 7.78 9.57667 8.07333 9.17 8.36C8.77 8.64 8.29667 8.90667 7.75 9.16C7.21 9.41333 6.56667 9.64667 5.82 9.86C5 10.1 4.28333 10.22 3.67 10.22Z" fill="black"/>
<path d="M12.787 13.6279C12.5237 13.7412 12.2262 13.8257 11.8945 13.8814C11.5655 13.9432 11.2307 13.9748 10.8902 13.9763C10.5532 13.9689 10.2371 13.9344 9.942 13.8727C9.65302 13.8084 9.41388 13.7082 9.22458 13.5719C9.17559 13.593 9.1218 13.6198 9.0632 13.6523C9.0046 13.6847 8.94162 13.7155 8.87427 13.7445C8.80079 13.7761 8.70366 13.8034 8.5829 13.8264C8.46213 13.8493 8.34571 13.8486 8.23362 13.8243C8.12153 13.8 8.04308 13.7357 7.99827 13.6316C7.97718 13.5827 7.99241 13.5253 8.04395 13.4596C8.10162 13.3912 8.22842 13.3148 8.42437 13.2305C8.80402 13.067 9.11741 13.07 9.36454 13.2395C9.57716 13.177 9.79938 13.1031 10.0312 13.0178C10.2631 12.9325 10.4984 12.8385 10.7372 12.7357C10.9821 12.6302 11.2244 12.5187 11.4641 12.401C11.7099 12.2807 11.9487 12.1525 12.1804 12.0164C11.9534 11.8601 11.7081 11.7117 11.4444 11.5712C11.1868 11.428 10.98 11.3102 10.824 11.2176C10.4657 11.009 10.1064 10.7898 9.74627 10.5602C9.38348 10.3244 9.01143 10.0418 8.63011 9.71244C8.48197 9.5875 8.37232 9.44236 8.30115 9.27703C8.19571 9.0321 8.1734 8.76952 8.23423 8.4893C8.29241 8.20296 8.39831 7.91785 8.55192 7.63398C8.70553 7.35011 8.88193 7.08546 9.08113 6.84004C9.2838 6.58585 9.46947 6.36802 9.63813 6.18655C9.81903 5.9998 10.0122 5.83317 10.2177 5.68665C10.4205 5.53401 10.6261 5.41288 10.8343 5.32325C10.9567 5.27053 11.077 5.22963 11.1951 5.20056C11.3588 5.15915 11.5413 5.17855 11.7428 5.25876C11.9477 5.33021 12.1401 5.43977 12.3198 5.58741C12.4968 5.72894 12.6249 5.89156 12.704 6.07526C12.7778 6.24671 12.8206 6.46417 12.8324 6.72764C12.8477 6.98235 12.8411 7.25373 12.8127 7.54178C12.7816 7.8237 12.7361 8.09733 12.6761 8.36266C12.6135 8.62188 12.5443 8.84039 12.4684 9.01822C12.3987 9.1934 12.327 9.29681 12.2536 9.32845C12.1495 9.37326 12.0308 9.35901 11.8976 9.28569C11.7706 9.20973 11.6939 9.14114 11.6675 9.07991C11.6517 9.04317 11.6517 9.01778 11.6674 9.00375C11.78 8.81011 11.8834 8.56965 11.9774 8.28238C12.0715 7.9951 12.1437 7.69911 12.194 7.3944C12.2478 7.08092 12.2735 6.78676 12.2713 6.51189C12.2726 6.22827 12.2364 6.00073 12.1626 5.82927C12.0782 5.63332 11.9481 5.5333 11.7721 5.52921C11.5996 5.51636 11.4062 5.55606 11.1919 5.64832C10.9899 5.73531 10.79 5.86124 10.5925 6.02613C10.3923 6.1849 10.2249 6.34405 10.0903 6.50358C9.65172 7.01901 9.33775 7.4699 9.14841 7.85624C8.95644 8.23647 8.84973 8.56184 8.82828 8.83237C8.81296 9.10026 8.84483 9.32605 8.92391 9.50976C9.00563 9.69958 9.20687 9.91416 9.52765 10.1535C9.84578 10.3867 10.34 10.6748 11.0102 11.0177C11.2625 11.1486 11.5284 11.2773 11.8078 11.4038C12.0908 11.5215 12.3527 11.641 12.5936 11.7623C12.8603 11.5894 13.1003 11.4135 13.3136 11.2346C13.5331 11.0531 13.7166 10.8724 13.8643 10.6928C13.8677 10.684 13.8756 10.677 13.8879 10.6717C13.9062 10.6638 13.9194 10.669 13.9273 10.6874C13.9484 10.7364 13.9427 10.7824 13.9104 10.8253C13.8179 10.9813 13.6755 11.1478 13.4832 11.325C13.2909 11.5021 13.064 11.6832 12.8026 11.8683C12.9883 11.9626 13.1469 12.0613 13.2784 12.1643C13.4072 12.2613 13.494 12.3618 13.5388 12.4659C13.6469 12.717 13.6236 12.9411 13.469 13.1383C13.3205 13.3329 13.0932 13.4961 12.787 13.6279ZM12.1986 13.5001C12.4374 13.3973 12.6149 13.2701 12.731 13.1185C12.8534 12.9642 12.8763 12.7983 12.7998 12.6207C12.7682 12.5473 12.7143 12.4725 12.638 12.3965C12.5591 12.3143 12.4666 12.2344 12.3605 12.1566C11.828 12.4875 11.2586 12.7834 10.6523 13.0444C10.2972 13.1973 9.94943 13.3252 9.60907 13.4282C9.84039 13.5608 10.1084 13.6523 10.4131 13.7026C10.7239 13.7503 11.0356 13.7576 11.3481 13.7247C11.664 13.6831 11.9475 13.6082 12.1986 13.5001Z" fill="black"/>
</g>
<defs>
<clipPath id="clip0_110_6">
<rect width="16" height="16" fill="white"/>
</clipPath>
</defs>
</svg>
